<svg width="33" height="32" viewBox="0 0 33 32" fill="none" xmlns="http://www.w3.org/2000/svg">
<path d="M16.0174 20.6056L15.9933 20.5828C16.6701 20.6511 17.3536 20.5679 17.9944 20.3391C18.6352 20.1103 19.2173 19.7419 19.6985 19.2602C20.1795 18.7784 20.5479 18.1955 20.7766 17.5537C21.0055 16.9119 21.089 16.2273 21.0214 15.5491L21.0454 15.5719C20.9782 14.774 21.0856 13.9712 21.36 13.2192C21.6345 12.4673 22.0695 11.7844 22.6345 11.2182C23.1996 10.6521 23.8812 10.2163 24.6317 9.94142C25.3823 9.66637 26.1836 9.5588 26.98 9.62615L26.956 9.60334C27.9086 9.69302 28.8655 9.486 29.6964 9.01067C30.5274 8.53534 31.1917 7.81477 31.5988 6.94727C32.0059 6.07978 32.136 5.10758 31.9714 4.16326C31.8068 3.21895 31.3554 2.34852 30.6788 1.67068C30.0023 0.992849 29.1334 0.540598 28.1909 0.375653C27.2484 0.210695 26.278 0.341047 25.4121 0.748939C24.5462 1.15682 23.8271 1.82239 23.3526 2.65485C22.8781 3.48731 22.6715 4.44614 22.7611 5.40054L22.7383 5.37648C22.8057 6.17434 22.6985 6.97733 22.4241 7.72937C22.1498 8.48142 21.7147 9.16439 21.1497 9.73064C20.5846 10.2967 19.9029 10.7326 19.1523 11.0074C18.4015 11.2823 17.6001 11.3897 16.8037 11.3222L16.8265 11.3463C16.1497 11.278 15.4661 11.3612 14.8254 11.59C14.1846 11.8186 13.6026 12.1872 13.1214 12.6689C12.6402 13.1506 12.2719 13.7336 12.0431 14.3754C11.8144 15.0172 11.7308 15.7018 11.7984 16.38L11.7757 16.3572C11.8427 17.155 11.7351 17.9578 11.4606 18.7097C11.186 19.4614 10.7511 20.1443 10.1861 20.7104C9.62103 21.2764 8.93953 21.7122 8.1891 21.9873C7.43867 22.2623 6.63738 22.3701 5.84112 22.3029L5.86388 22.3257C4.91127 22.2361 3.95424 22.443 3.12334 22.9184C2.29245 23.3938 1.62813 24.1143 1.22102 24.9818C0.813892 25.8494 0.683772 26.8215 0.84842 27.7658C1.01307 28.7101 1.46447 29.5806 2.14103 30.2584C2.8176 30.9363 3.68639 31.3885 4.62893 31.5534C5.57146 31.7183 6.54184 31.588 7.40771 31.1801C8.27357 30.7723 8.99278 30.1068 9.46722 29.2743C9.94171 28.4417 10.1483 27.483 10.0588 26.5285L10.0828 26.5513C10.0155 25.7535 10.123 24.9507 10.3975 24.1986C10.6718 23.4467 11.1069 22.7639 11.6719 22.1977C12.237 21.6316 12.9186 21.1957 13.6691 20.9209C14.4197 20.6459 15.221 20.5382 16.0174 20.6056Z" fill="#3649F9"/>
</svg>
