<?xml version="1.0" encoding="UTF-8"?>
<!DOCTYPE svg PUBLIC "-//W3C//DTD SVG 1.1//EN" "http://www.w3.org/Graphics/SVG/1.1/DTD/svg11.dtd">
<svg xmlns="http://www.w3.org/2000/svg" version="1.1" width="512px" height="512px" style="shape-rendering:geometricPrecision; text-rendering:geometricPrecision; image-rendering:optimizeQuality; fill-rule:evenodd; clip-rule:evenodd" xmlns:xlink="http://www.w3.org/1999/xlink">
<g><path style="opacity:0.988" fill="#000000" d="M 301.5,84.5 C 300,86.2324 298.333,87.8991 296.5,89.5C 282.762,84.6985 269.095,79.6985 255.5,74.5C 228.471,84.5085 201.471,94.5085 174.5,104.5C 167.964,106.512 161.63,109.012 155.5,112C 188.801,124.267 222.134,136.433 255.5,148.5C 261.806,146.67 267.806,144.336 273.5,141.5C 300.912,131.973 328.246,122.14 355.5,112C 341.613,106.538 327.613,101.371 313.5,96.5C 313.878,94.079 314.545,91.7457 315.5,89.5C 315.613,86.3136 316.78,83.6469 319,81.5C 345.615,90.8714 372.115,100.538 398.5,110.5C 399.484,113.428 399.817,116.428 399.5,119.5C 426.833,119.5 454.167,119.5 481.5,119.5C 481.5,210.167 481.5,300.833 481.5,391.5C 491.5,391.5 501.5,391.5 511.5,391.5C 511.5,397.833 511.5,404.167 511.5,410.5C 506.014,432.819 492.014,446.652 469.5,452C 458.172,452.5 446.838,452.667 435.5,452.5C 435.5,450.167 435.5,447.833 435.5,445.5C 436.473,443.052 436.806,440.385 436.5,437.5C 446.172,437.666 455.839,437.5 465.5,437C 477.841,434.484 486.841,427.651 492.5,416.5C 493.492,413.862 494.492,411.195 495.5,408.5C 436.833,407.167 378.167,407.167 319.5,408.5C 317.215,412.735 315.215,417.069 313.5,421.5C 279.684,423.162 246.017,422.829 212.5,420.5C 210.513,416.527 208.513,412.527 206.5,408.5C 147.504,407.5 88.5038,407.167 29.5,407.5C 24.7863,407.173 20.1196,407.507 15.5,408.5C 20.144,423.644 30.144,433.144 45.5,437C 160.833,437.5 276.166,437.667 391.5,437.5C 391.5,440.167 391.5,442.833 391.5,445.5C 391.5,447.833 391.5,450.167 391.5,452.5C 274.833,452.667 158.166,452.5 41.5,452C 18.9861,446.652 4.98611,432.819 -0.5,410.5C -0.5,404.167 -0.5,397.833 -0.5,391.5C 9.5,391.5 19.5,391.5 29.5,391.5C 29.5,300.833 29.5,210.167 29.5,119.5C 49.5028,119.333 69.5028,119.5 89.5,120C 97.2337,122.743 104.9,125.577 112.5,128.5C 116.655,130.402 120.989,132.069 125.5,133.5C 98.5,134.167 71.5,134.833 44.5,135.5C 44.5,221.167 44.5,306.833 44.5,392.5C 101.5,392.5 158.5,392.5 215.5,392.5C 217.82,397.14 220.153,401.807 222.5,406.5C 249.494,407.667 276.494,407.833 303.5,407C 306.245,402.343 308.579,397.51 310.5,392.5C 310.833,392.5 311.167,392.5 311.5,392.5C 363.167,392.5 414.833,392.5 466.5,392.5C 466.833,306.665 466.499,220.998 465.5,135.5C 443.167,135.5 420.833,135.5 398.5,135.5C 398.5,140.5 398.5,145.5 398.5,150.5C 415.833,150.5 433.167,150.5 450.5,150.5C 450.5,225.5 450.5,300.5 450.5,375.5C 320.5,375.5 190.5,375.5 60.5,375.5C 60.5,355.833 60.5,336.167 60.5,316.5C 65.1667,316.5 69.8333,316.5 74.5,316.5C 74.5,331.5 74.5,346.5 74.5,361.5C 195.167,361.5 315.833,361.5 436.5,361.5C 436.832,295.998 436.499,230.665 435.5,165.5C 423.167,165.5 410.833,165.5 398.5,165.5C 398.5,170.5 398.5,175.5 398.5,180.5C 403.5,180.5 408.5,180.5 413.5,180.5C 413.5,200.5 413.5,220.5 413.5,240.5C 398.5,240.5 383.5,240.5 368.5,240.5C 368.5,220.5 368.5,200.5 368.5,180.5C 373.5,180.5 378.5,180.5 383.5,180.5C 383.5,173.167 383.5,165.833 383.5,158.5C 383.5,148.5 383.5,138.5 383.5,128.5C 383.82,125.102 383.487,121.768 382.5,118.5C 373.656,121.665 364.989,124.999 356.5,128.5C 350.38,129.763 344.38,131.429 338.5,133.5C 338.5,141.833 338.5,150.167 338.5,158.5C 338.823,172.412 338.49,186.246 337.5,200C 310.143,210.897 282.643,221.397 255,231.5C 227.768,221.2 200.602,210.7 173.5,200C 172.512,188.581 172.179,177.081 172.5,165.5C 144.833,165.5 117.167,165.5 89.5,165.5C 84.5,165.5 79.5,165.5 74.5,165.5C 74.5,210.5 74.5,255.5 74.5,300.5C 69.8333,300.5 65.1667,300.5 60.5,300.5C 60.5,250.5 60.5,200.5 60.5,150.5C 98.0037,150.832 135.337,150.498 172.5,149.5C 172.5,144.167 172.5,138.833 172.5,133.5C 166.485,131.822 160.485,130.155 154.5,128.5C 140.153,123.047 125.82,117.381 111.5,111.5C 158.452,93.9045 205.452,76.4045 252.5,59C 254.5,58.3333 256.5,58.3333 258.5,59C 273.276,64.2221 287.943,69.7221 302.5,75.5C 302.833,76 303.167,76.5 303.5,77C 302.521,79.4333 301.855,81.9333 301.5,84.5 Z M 383.5,128.5 C 374.5,128.5 365.5,128.5 356.5,128.5C 364.989,124.999 373.656,121.665 382.5,118.5C 383.487,121.768 383.82,125.102 383.5,128.5 Z"/></g>
<g><path style="opacity:0.999" fill="#60738a" d="M 301.5,84.5 C 306.162,86.1652 310.828,87.8318 315.5,89.5C 314.545,91.7457 313.878,94.079 313.5,96.5C 327.613,101.371 341.613,106.538 355.5,112C 328.246,122.14 300.912,131.973 273.5,141.5C 240.324,129.402 207.324,117.069 174.5,104.5C 201.471,94.5085 228.471,84.5085 255.5,74.5C 269.095,79.6985 282.762,84.6985 296.5,89.5C 298.333,87.8991 300,86.2324 301.5,84.5 Z"/></g>
<g><path style="opacity:1" fill="#516073" d="M 174.5,104.5 C 207.324,117.069 240.324,129.402 273.5,141.5C 267.806,144.336 261.806,146.67 255.5,148.5C 222.134,136.433 188.801,124.267 155.5,112C 161.63,109.012 167.964,106.512 174.5,104.5 Z"/></g>
<g><path style="opacity:0.993" fill="#a3d6f4" d="M 112.5,128.5 C 126.5,128.5 140.5,128.5 154.5,128.5C 160.485,130.155 166.485,131.822 172.5,133.5C 172.5,138.833 172.5,144.167 172.5,149.5C 134.833,149.5 97.1667,149.5 59.5,149.5C 59.5,144.833 59.5,140.167 59.5,135.5C 82.8357,135.667 106.169,135.5 129.5,135C 128.099,134.59 126.766,134.09 125.5,133.5C 120.989,132.069 116.655,130.402 112.5,128.5 Z"/></g>
<g><path style="opacity:0.993" fill="#a3d6f4" d="M 356.5,128.5 C 365.5,128.5 374.5,128.5 383.5,128.5C 383.5,138.5 383.5,148.5 383.5,158.5C 368.5,158.5 353.5,158.5 338.5,158.5C 338.5,150.167 338.5,141.833 338.5,133.5C 344.38,131.429 350.38,129.763 356.5,128.5 Z"/></g>
<g><path style="opacity:1" fill="#202b31" d="M 125.5,133.5 C 126.766,134.09 128.099,134.59 129.5,135C 106.169,135.5 82.8357,135.667 59.5,135.5C 54.8333,135.5 50.1667,135.5 45.5,135.5C 45.1667,135.5 44.8333,135.5 44.5,135.5C 71.5,134.833 98.5,134.167 125.5,133.5 Z"/></g>
<g><path style="opacity:1" fill="#6194b2" d="M 44.5,135.5 C 44.8333,135.5 45.1667,135.5 45.5,135.5C 45.5,220.833 45.5,306.167 45.5,391.5C 102.336,391.168 159.002,391.501 215.5,392.5C 158.5,392.5 101.5,392.5 44.5,392.5C 44.5,306.833 44.5,221.167 44.5,135.5 Z"/></g>
<g><path style="opacity:1" fill="#82c7f0" d="M 45.5,135.5 C 50.1667,135.5 54.8333,135.5 59.5,135.5C 59.5,140.167 59.5,144.833 59.5,149.5C 97.1667,149.5 134.833,149.5 172.5,149.5C 135.337,150.498 98.0037,150.832 60.5,150.5C 59.5011,200.664 59.1678,250.997 59.5,301.5C 61.8333,301.5 64.1667,301.5 66.5,301.5C 66.5,306.167 66.5,310.833 66.5,315.5C 64.1667,315.5 61.8333,315.5 59.5,315.5C 59.5,335.833 59.5,356.167 59.5,376.5C 114.167,376.5 168.833,376.5 223.5,376.5C 226.387,381.605 228.72,386.939 230.5,392.5C 257.167,392.5 283.833,392.5 310.5,392.5C 308.579,397.51 306.245,402.343 303.5,407C 276.494,407.833 249.494,407.667 222.5,406.5C 220.153,401.807 217.82,397.14 215.5,392.5C 159.002,391.501 102.336,391.168 45.5,391.5C 45.5,306.167 45.5,220.833 45.5,135.5 Z"/></g>
<g><path style="opacity:1" fill="#a3d6f4" d="M 465.5,135.5 C 465.5,215.833 465.5,296.167 465.5,376.5C 460.833,376.5 456.167,376.5 451.5,376.5C 451.833,300.998 451.499,225.665 450.5,150.5C 433.167,150.5 415.833,150.5 398.5,150.5C 398.5,145.5 398.5,140.5 398.5,135.5C 420.833,135.5 443.167,135.5 465.5,135.5 Z"/></g>
<g><path style="opacity:1" fill="#81afcb" d="M 465.5,135.5 C 466.499,220.998 466.833,306.665 466.5,392.5C 414.833,392.5 363.167,392.5 311.5,392.5C 314.962,391.518 318.629,391.185 322.5,391.5C 370.167,391.5 417.833,391.5 465.5,391.5C 465.5,386.5 465.5,381.5 465.5,376.5C 465.5,296.167 465.5,215.833 465.5,135.5 Z"/></g>
<g><path style="opacity:1" fill="#516073" d="M 201.5,145.5 C 201.5,152.167 201.5,158.833 201.5,165.5C 200.892,170.944 201.558,175.944 203.5,180.5C 219.614,187.267 235.948,193.767 252.5,200C 254.913,200.484 257.246,200.15 259.5,199C 280.127,190.735 300.794,182.569 321.5,174.5C 322.499,163.186 322.832,151.853 322.5,140.5C 323.818,156.102 323.818,172.435 322.5,189.5C 300.273,198.447 277.94,207.114 255.5,215.5C 233.06,207.114 210.727,198.447 188.5,189.5C 187.501,173.18 187.167,156.847 187.5,140.5C 192.534,141.398 197.201,143.065 201.5,145.5 Z"/></g>
<g><path style="opacity:1" fill="#60738a" d="M 322.5,140.5 C 322.832,151.853 322.499,163.186 321.5,174.5C 300.794,182.569 280.127,190.735 259.5,199C 257.246,200.15 254.913,200.484 252.5,200C 235.948,193.767 219.614,187.267 203.5,180.5C 208.167,180.5 212.833,180.5 217.5,180.5C 217.5,175.5 217.5,170.5 217.5,165.5C 212.167,165.5 206.833,165.5 201.5,165.5C 201.5,158.833 201.5,152.167 201.5,145.5C 219.349,151.728 237.183,158.061 255,164.5C 277.56,156.592 300.06,148.592 322.5,140.5 Z"/></g>
<g><path style="opacity:1" fill="#2f3c44" d="M 60.5,150.5 C 60.5,200.5 60.5,250.5 60.5,300.5C 65.1667,300.5 69.8333,300.5 74.5,300.5C 72.0521,301.473 69.3854,301.806 66.5,301.5C 64.1667,301.5 61.8333,301.5 59.5,301.5C 59.1678,250.997 59.5011,200.664 60.5,150.5 Z"/></g>
<g><path style="opacity:1" fill="#e4ebf4" d="M 338.5,158.5 C 353.5,158.5 368.5,158.5 383.5,158.5C 383.5,165.833 383.5,173.167 383.5,180.5C 378.5,180.5 373.5,180.5 368.5,180.5C 368.5,200.5 368.5,220.5 368.5,240.5C 383.5,240.5 398.5,240.5 413.5,240.5C 413.5,220.5 413.5,200.5 413.5,180.5C 408.5,180.5 403.5,180.5 398.5,180.5C 398.5,175.5 398.5,170.5 398.5,165.5C 410.833,165.5 423.167,165.5 435.5,165.5C 435.5,225.833 435.5,286.167 435.5,346.5C 320.167,346.5 204.833,346.5 89.5,346.5C 89.5,286.167 89.5,225.833 89.5,165.5C 117.167,165.5 144.833,165.5 172.5,165.5C 172.179,177.081 172.512,188.581 173.5,200C 200.602,210.7 227.768,221.2 255,231.5C 282.643,221.397 310.143,210.897 337.5,200C 338.49,186.246 338.823,172.412 338.5,158.5 Z"/></g>
<g><path style="opacity:1" fill="#c9d7e9" d="M 89.5,165.5 C 89.5,225.833 89.5,286.167 89.5,346.5C 204.833,346.5 320.167,346.5 435.5,346.5C 435.5,351.167 435.5,355.833 435.5,360.5C 315.5,360.5 195.5,360.5 75.5,360.5C 75.8294,345.324 75.4961,330.324 74.5,315.5C 71.8333,315.5 69.1667,315.5 66.5,315.5C 66.5,310.833 66.5,306.167 66.5,301.5C 69.3854,301.806 72.0521,301.473 74.5,300.5C 74.5,255.5 74.5,210.5 74.5,165.5C 79.5,165.5 84.5,165.5 89.5,165.5 Z"/></g>
<g><path style="opacity:1" fill="#f5f6f8" d="M 201.5,165.5 C 206.833,165.5 212.167,165.5 217.5,165.5C 217.5,170.5 217.5,175.5 217.5,180.5C 212.833,180.5 208.167,180.5 203.5,180.5C 201.558,175.944 200.892,170.944 201.5,165.5 Z"/></g>
<g><path style="opacity:1" fill="#f9ee91" d="M 398.5,211.5 C 393.5,211.5 388.5,211.5 383.5,211.5C 383.5,206.167 383.5,200.833 383.5,195.5C 388.5,195.5 393.5,195.5 398.5,195.5C 398.5,200.833 398.5,206.167 398.5,211.5 Z"/></g>
<g><path style="opacity:1" fill="#f5e13d" d="M 383.5,211.5 C 388.5,211.5 393.5,211.5 398.5,211.5C 398.5,216.167 398.5,220.833 398.5,225.5C 393.5,225.5 388.5,225.5 383.5,225.5C 383.5,220.833 383.5,216.167 383.5,211.5 Z"/></g>
<g><path style="opacity:1" fill="#020202" d="M 157.5,256.5 C 172.5,256.5 187.5,256.5 202.5,256.5C 202.5,261.5 202.5,266.5 202.5,271.5C 192.5,271.5 182.5,271.5 172.5,271.5C 172.5,276.5 172.5,281.5 172.5,286.5C 177.5,286.5 182.5,286.5 187.5,286.5C 187.5,291.5 187.5,296.5 187.5,301.5C 182.5,301.5 177.5,301.5 172.5,301.5C 172.5,306.5 172.5,311.5 172.5,316.5C 182.5,316.5 192.5,316.5 202.5,316.5C 202.5,321.5 202.5,326.5 202.5,331.5C 187.5,331.5 172.5,331.5 157.5,331.5C 157.5,306.5 157.5,281.5 157.5,256.5 Z"/></g>
<g><path style="opacity:1" fill="#72757a" d="M 244.5,256.5 C 236.167,256.5 227.833,256.5 219.5,256.5C 219.5,281.5 219.5,306.5 219.5,331.5C 218.502,306.339 218.169,281.005 218.5,255.5C 227.349,255.174 236.016,255.507 244.5,256.5 Z"/></g>
<g><path style="opacity:1" fill="#020202" d="M 244.5,256.5 C 260.844,259.256 271.344,268.589 276,284.5C 279.114,303.43 272.614,317.93 256.5,328C 252.943,329.408 249.276,330.408 245.5,331C 236.84,331.5 228.173,331.666 219.5,331.5C 219.5,306.5 219.5,281.5 219.5,256.5C 227.833,256.5 236.167,256.5 244.5,256.5 Z"/></g>
<g><path style="opacity:1" fill="#020303" d="M 293.5,256.5 C 298.167,256.5 302.833,256.5 307.5,256.5C 307.17,272.009 307.504,287.342 308.5,302.5C 311.163,313.001 317.83,317.168 328.5,315C 333.4,313.098 336.567,309.598 338,304.5C 338.5,288.17 338.667,271.837 338.5,255.5C 343.5,255.5 348.5,255.5 353.5,255.5C 353.667,271.837 353.5,288.17 353,304.5C 348.292,324.281 335.792,332.781 315.5,330C 303.869,326.229 296.702,318.395 294,306.5C 293.5,289.837 293.333,273.17 293.5,256.5 Z"/></g>
<g><path style="opacity:1" fill="#3f4143" d="M 293.5,256.5 C 298.305,255.513 303.305,255.179 308.5,255.5C 308.5,271.167 308.5,286.833 308.5,302.5C 307.504,287.342 307.17,272.009 307.5,256.5C 302.833,256.5 298.167,256.5 293.5,256.5 Z"/></g>
<g><path style="opacity:1" fill="#dee5ee" d="M 233.5,271.5 C 254.318,270.818 263.484,280.818 261,301.5C 255.695,313.405 246.528,318.405 233.5,316.5C 233.5,301.5 233.5,286.5 233.5,271.5 Z"/></g>
<g><path style="opacity:1" fill="#969fab" d="M 435.5,165.5 C 436.499,230.665 436.832,295.998 436.5,361.5C 315.833,361.5 195.167,361.5 74.5,361.5C 74.5,346.5 74.5,331.5 74.5,316.5C 74.5,316.167 74.5,315.833 74.5,315.5C 75.4961,330.324 75.8294,345.324 75.5,360.5C 195.5,360.5 315.5,360.5 435.5,360.5C 435.5,355.833 435.5,351.167 435.5,346.5C 435.5,286.167 435.5,225.833 435.5,165.5 Z"/></g>
<g><path style="opacity:1" fill="#232e35" d="M 450.5,150.5 C 451.499,225.665 451.833,300.998 451.5,376.5C 410.167,376.5 368.833,376.5 327.5,376.5C 292.833,376.5 258.167,376.5 223.5,376.5C 168.833,376.5 114.167,376.5 59.5,376.5C 59.5,356.167 59.5,335.833 59.5,315.5C 61.8333,315.5 64.1667,315.5 66.5,315.5C 69.1667,315.5 71.8333,315.5 74.5,315.5C 74.5,315.833 74.5,316.167 74.5,316.5C 69.8333,316.5 65.1667,316.5 60.5,316.5C 60.5,336.167 60.5,355.833 60.5,375.5C 190.5,375.5 320.5,375.5 450.5,375.5C 450.5,300.5 450.5,225.5 450.5,150.5 Z"/></g>
<g><path style="opacity:1" fill="#a3d6f4" d="M 223.5,376.5 C 258.167,376.5 292.833,376.5 327.5,376.5C 326.027,381.585 324.36,386.585 322.5,391.5C 318.629,391.185 314.962,391.518 311.5,392.5C 311.167,392.5 310.833,392.5 310.5,392.5C 283.833,392.5 257.167,392.5 230.5,392.5C 228.72,386.939 226.387,381.605 223.5,376.5 Z"/></g>
<g><path style="opacity:1" fill="#83c8f1" d="M 327.5,376.5 C 368.833,376.5 410.167,376.5 451.5,376.5C 456.167,376.5 460.833,376.5 465.5,376.5C 465.5,381.5 465.5,386.5 465.5,391.5C 417.833,391.5 370.167,391.5 322.5,391.5C 324.36,386.585 326.027,381.585 327.5,376.5 Z"/></g>
<g><path style="opacity:1" fill="#526174" d="M 29.5,407.5 C 34.2513,416.055 41.5846,420.888 51.5,422C 78.3333,422.167 105.167,422.333 132,422.5C 159.175,422.5 186.008,421.833 212.5,420.5C 246.017,422.829 279.684,423.162 313.5,421.5C 367.332,422.665 421.332,422.832 475.5,422C 481.423,420.859 487.09,419.025 492.5,416.5C 486.841,427.651 477.841,434.484 465.5,437C 455.839,437.5 446.172,437.666 436.5,437.5C 436.806,440.385 436.473,443.052 435.5,445.5C 430.833,445.5 426.167,445.5 421.5,445.5C 421.5,442.833 421.5,440.167 421.5,437.5C 416.5,437.5 411.5,437.5 406.5,437.5C 406.806,440.385 406.473,443.052 405.5,445.5C 400.833,445.5 396.167,445.5 391.5,445.5C 391.5,442.833 391.5,440.167 391.5,437.5C 276.166,437.667 160.833,437.5 45.5,437C 30.144,433.144 20.144,423.644 15.5,408.5C 20.1196,407.507 24.7863,407.173 29.5,407.5 Z"/></g>
<g><path style="opacity:1" fill="#60738a" d="M 29.5,407.5 C 88.5038,407.167 147.504,407.5 206.5,408.5C 208.513,412.527 210.513,416.527 212.5,420.5C 186.008,421.833 159.175,422.5 132,422.5C 105.167,422.333 78.3333,422.167 51.5,422C 41.5846,420.888 34.2513,416.055 29.5,407.5 Z"/></g>
<g><path style="opacity:1" fill="#60738a" d="M 492.5,416.5 C 487.09,419.025 481.423,420.859 475.5,422C 421.332,422.832 367.332,422.665 313.5,421.5C 315.215,417.069 317.215,412.735 319.5,408.5C 378.167,407.167 436.833,407.167 495.5,408.5C 494.492,411.195 493.492,413.862 492.5,416.5 Z"/></g>
<g><path style="opacity:0.914" fill="#010101" d="M 421.5,445.5 C 423.172,452.494 420.506,455.161 413.5,453.5C 406.494,455.161 403.828,452.494 405.5,445.5C 406.473,443.052 406.806,440.385 406.5,437.5C 411.5,437.5 416.5,437.5 421.5,437.5C 421.5,440.167 421.5,442.833 421.5,445.5 Z"/></g>
</svg>
